<?xml version="1.0" standalone="no"?>
<!-- Generator: Adobe Fireworks 10, Export SVG Extension by Aaron Beall (http://fireworks.abeall.com) . Version: 0.6.1  -->
<!DOCTYPE svg PUBLIC "-//W3C//DTD SVG 1.1//EN" "http://www.w3.org/Graphics/SVG/1.1/DTD/svg11.dtd">
<svg id="352-rings-cleaner-Page%203%20Copy%201" viewBox="0 0 962 962" style="background-color:#ffffff" version="1.1"
	xmlns="http://www.w3.org/2000/svg" xmlns:xlink="http://www.w3.org/1999/xlink" xml:space="preserve"
	x="0px" y="0px" width="962px" height="962px"
>
	<defs>
		<linearGradient id="gradient1" x1="14.5038%" y1="13.9241%" x2="82.4428%" y2="88.3544%">
			<stop stop-color="#2040fd" stop-opacity="1" offset="0%"/>
			<stop stop-color="#1631cf" stop-opacity="1" offset="100%"/>
		</linearGradient>
		<linearGradient id="gradient2" x1="17.1356%" y1="13.2653%" x2="86.7008%" y2="83.1633%">
			<stop stop-color="#587dfd" stop-opacity="1" offset="0%"/>
			<stop stop-color="#1f3ce1" stop-opacity="1" offset="52.7778%"/>
			<stop stop-color="#476ce5" stop-opacity="1" offset="95%"/>
		</linearGradient>
		<linearGradient id="gradient3" x1="11.4968%" y1="16.7089%" x2="86.9169%" y2="84.135%">
			<stop stop-color="#0580e9" stop-opacity="1" offset="0%"/>
			<stop stop-color="#0267bc" stop-opacity="1" offset="100%"/>
		</linearGradient>
		<linearGradient id="gradient4" x1="16.3089%" y1="13.2653%" x2="86.5681%" y2="83.1633%">
			<stop stop-color="#22b2f3" stop-opacity="1" offset="0%"/>
			<stop stop-color="#0679d3" stop-opacity="1" offset="52.7778%"/>
			<stop stop-color="#149dda" stop-opacity="1" offset="95%"/>
		</linearGradient>
		<linearGradient id="gradient5" x1="14.7583%" y1="13.9241%" x2="85.581%" y2="85.4009%">
			<stop stop-color="#69ffbd" stop-opacity="1" offset="0%"/>
			<stop stop-color="#25d684" stop-opacity="1" offset="100%"/>
		</linearGradient>
		<linearGradient id="gradient6" x1="17.1355%" y1="13.2653%" x2="86.7008%" y2="83.1632%">
			<stop stop-color="#9fffd9" stop-opacity="1" offset="0%"/>
			<stop stop-color="#43e29c" stop-opacity="1" offset="53.8889%"/>
			<stop stop-color="#55e6ac" stop-opacity="1" offset="96.1111%"/>
		</linearGradient>
		<linearGradient id="gradient7" x1="94.4654%" y1="9.7826%" x2="55.3206%" y2="100.4541%">
			<stop stop-color="#36d68b" stop-opacity="0.498" offset="0%"/>
			<stop stop-color="#36d68b" stop-opacity="1" offset="99.4444%"/>
		</linearGradient>
		<linearGradient id="gradient8" x1="14.7208%" y1="13.9241%" x2="85.7868%" y2="84.557%">
			<stop stop-color="#5acbeb" stop-opacity="1" offset="0%"/>
			<stop stop-color="#27a8da" stop-opacity="1" offset="100%"/>
		</linearGradient>
		<linearGradient id="gradient9" x1="17.1355%" y1="13.2653%" x2="86.7008%" y2="83.1633%">
			<stop stop-color="#8fe0f3" stop-opacity="1" offset="0%"/>
			<stop stop-color="#40b9e2" stop-opacity="1" offset="55%"/>
			<stop stop-color="#65cfeb" stop-opacity="1" offset="97.2222%"/>
		</linearGradient>
		<linearGradient id="gradient10" x1="15.2672%" y1="14.1772%" x2="87.7863%" y2="83.2913%">
			<stop stop-color="#53e138" stop-opacity="1" offset="0%"/>
			<stop stop-color="#49cd34" stop-opacity="1" offset="100%"/>
		</linearGradient>
		<linearGradient id="gradient11" x1="17.1356%" y1="13.2653%" x2="86.7009%" y2="83.1632%">
			<stop stop-color="#a1fd6c" stop-opacity="1" offset="0%"/>
			<stop stop-color="#54d73d" stop-opacity="1" offset="54.4444%"/>
			<stop stop-color="#87e572" stop-opacity="1" offset="96.6667%"/>
		</linearGradient>
	</defs>
	<g id="Layer%201">
		<g>
			<g>
				<g>
					<path d="M 285.7039 794.8135 C 99.2363 734.2266 -2.8071 533.955 57.7798 347.4874 C 118.3669 161.0197 318.6384 58.9764 505.106 119.5634 C 691.5736 180.1504 793.6169 380.4218 733.03 566.8895 C 672.443 753.3571 472.1716 855.4006 285.7039 794.8135 ZM 273.3432 832.8557 C 480.8213 900.2695 703.6586 786.7281 771.0723 579.2502 C 838.486 371.7721 724.9447 148.9349 517.4666 81.5211 C 309.9886 14.1075 87.1513 127.6487 19.7375 335.1268 C -47.6761 542.6047 65.8652 765.4421 273.3432 832.8557 Z" fill="url(#gradient1)"/>
					<path d="M 279.1588 794.5688 C 90.0649 733.1284 -13.4158 530.0363 48.0246 340.9424 C 109.4649 151.8485 312.5571 48.3678 501.6511 109.8081 C 690.7449 171.2484 794.2256 374.3407 732.7853 563.4346 C 671.345 752.5284 468.2527 856.0092 279.1588 794.5688 ZM 269.8883 823.1006 C 474.74 889.6609 694.7566 777.5569 761.3169 572.7051 C 827.8773 367.8534 715.7732 147.8368 510.9216 81.2764 C 306.0698 14.7161 86.0532 126.8202 19.4929 331.6719 C -47.0675 536.5236 65.0366 756.5402 269.8883 823.1006 Z" fill="url(#gradient2)"/>
				</g>
				<path opacity="0.502" d="M 315.09 837.48 C 302.4453 824.6881 289.1891 806.4244 278.32 792.325 C 272.8482 790.4159 267.4532 788.3873 262.135 786.24 C 278.2366 805.4379 296.011 822.5372 315.09 837.48 ZM 498.7949 796.83 C 527.0513 795.8387 585.7113 790.325 627.84 776.595 C 642.0266 766.289 655.5553 755.0189 668.3199 742.845 C 624.9302 766.2601 576.6616 781.7952 525.4299 787.53 C 516.6869 790.9768 507.8018 794.0797 498.7949 796.83 ZM 419.465 823.775 C 433.5566 830.6008 452.6077 839.2386 468.835 845.38 C 472.9077 844.6058 476.9653 843.7703 481.005 842.87 C 459.9523 838.1772 439.3706 831.7764 419.465 823.775 ZM 784.105 386.51 C 781.8062 373.9316 778.903 361.4991 775.4149 349.26 C 750.8566 315.7419 712.6217 281.5282 697.09 268.505 C 734.0627 302.7959 763.201 342.9695 784.105 386.51 ZM 676.015 239.68 C 693.1735 247.3246 726.3667 263.0596 745.88 275 C 745.2915 273.8679 744.6993 272.7365 744.1 271.61 C 720.1249 253.9922 694.2567 239.6629 667.1899 228.73 C 670.2062 232.3246 673.1482 235.9747 676.015 239.68 ZM 505.73 119.765 C 522.1305 116.578 555.2668 112.1685 586.905 111.63 C 580.8912 108.3061 574.7638 105.1244 568.53 102.095 C 539.5649 101.9418 510.1951 105.3596 481 112.645 C 489.0524 114.6544 497.0918 116.9595 505.106 119.5634 L 505.73 119.765 ZM 273.465 123.77 C 310.569 97.9654 360.7366 73.1655 388.0701 62.15 C 375.58 62.3812 363.1608 63.2109 350.855 64.615 C 306.0072 82.2948 265.6254 108.8407 231.87 142.095 C 245.3215 135.1145 259.2161 128.9922 273.465 123.77 Z" fill="#0926c7"/>
			</g>
			<g>
				<g>
					<path d="M 747.661 789.9867 C 875.8895 613.4953 836.7659 366.4783 660.2745 238.2498 C 483.7831 110.0213 236.7661 149.1449 108.5376 325.6364 C 74.2216 372.8683 51.8897 425.1497 40.97 478.855 C 43.9252 526.9756 56.6961 573.5909 77.895 615.975 C 62.8689 525.4741 82.7139 429.2318 140.8983 349.1478 C 256.1417 190.5289 478.1443 155.3671 636.7631 270.6105 C 795.3818 385.8538 830.5437 607.8564 715.3004 766.4753 C 600.0571 925.0941 378.0543 960.2559 219.4355 845.0126 C 182.2728 818.0122 151.8876 785.1523 128.625 748.62 C 91.3055 714.4153 61.1492 673.5049 39.47 628.47 C 57.0045 724.9857 110.2959 815.1606 195.9241 877.3733 C 372.4155 1005.6017 619.4326 966.478 747.661 789.9867 Z" fill="url(#gradient3)"/>
					<path d="M 738.616 782.0479 C 865.2213 607.7905 826.5929 363.9003 652.3356 237.2949 C 478.0784 110.6896 234.188 149.318 107.5827 323.5753 C 73.5975 370.3519 51.5204 422.1438 40.775 475.34 C 42.743 513.6331 50.9313 551.0168 64.64 586.125 C 56.7939 502.0549 78.3216 414.8887 131.8532 341.2089 C 248.7197 180.356 473.8491 144.699 634.702 261.5654 C 795.5549 378.4319 831.2119 603.5613 714.3455 764.4143 C 597.479 925.2671 372.3495 960.9241 211.4966 844.0576 C 168.3452 812.7063 134.2034 773.563 109.6 729.96 C 81.8953 700.8809 58.889 667.8309 41.245 632.115 C 60.2564 723.7947 112.146 808.9573 193.8631 868.3281 C 368.1204 994.9335 612.0106 956.3051 738.616 782.0479 Z" fill="url(#gradient4)"/>
				</g>
				<path opacity="0.502" d="M 75.875 602.145 C 56.4674 549.7697 48.8691 486.7156 46.695 454.65 C 44.5251 462.6779 42.618 470.7498 40.97 478.855 C 43.9252 526.9756 56.6961 573.5909 77.895 615.975 C 77.1319 611.379 76.4578 606.7676 75.875 602.145 ZM 142.395 347.105 C 147.237 320.3942 158.2858 281.327 164.925 260.39 C 158.2492 266.2952 151.7442 272.4584 145.425 278.88 C 135.4456 307.7251 129.0794 338.2571 126.87 369.935 C 131.2695 362.8975 135.9458 355.9643 140.8983 349.1478 L 142.395 347.105 ZM 319.0649 219.945 C 334.0825 205.1984 365.7346 178.4013 387.12 164.94 C 377.8213 165.913 368.5602 167.2137 359.355 168.84 C 335.1914 186.1974 313.5715 206.3719 294.81 228.735 C 302.7974 225.5084 310.8865 222.5771 319.0649 219.945 ZM 530.85 217.905 C 566.9868 215.3409 626.3483 223.9517 643.33 226.59 C 636.5956 222.2059 629.769 218.0539 622.865 214.13 C 576.777 202.2271 528.4736 199.5893 481.005 206.7 C 497.769 209.212 514.4282 212.9401 530.85 217.905 ZM 760.08 683.815 C 775.1168 670.5536 802.4117 642.3297 818.615 617.73 C 819.739 610.3638 820.6521 602.9792 821.355 595.585 C 805.5548 622.3375 786.6908 647.0654 765.245 669.285 C 763.6337 674.153 761.9119 678.9973 760.08 683.815 Z" fill="#0050cb"/>
			</g>
			<g>
				<g>
					<path d="M 853.4624 325.6364 C 725.2339 149.1449 478.2168 110.0214 301.7255 238.2498 C 125.2341 366.4783 86.1104 613.4953 214.339 789.9867 C 248.6561 837.2202 291.4805 874.6139 339.1851 901.595 C 367.5382 908.9202 396.4825 912.63 425.34 912.83 C 443.2246 912.7043 461.0618 911.2515 478.6951 908.495 C 388.8387 894.3486 304.3914 845.8812 246.6996 766.4753 C 131.4563 607.8564 166.618 385.8539 325.2369 270.6105 C 483.8557 155.3672 705.8584 190.5289 821.1017 349.1478 C 936.345 507.7665 901.1832 729.7693 742.5645 845.0126 C 705.3993 872.0146 664.756 890.7604 622.8199 901.595 C 578.7583 926.5168 530.5327 942.5537 481.005 949.255 C 578.2161 962.4053 680.4464 939.5867 766.0758 877.3733 C 942.5671 749.1448 981.6908 502.1277 853.4624 325.6364 Z" fill="url(#gradient5)"/>
					<path d="M 844.4174 323.5753 C 717.812 149.318 473.9216 110.6896 299.6644 237.2949 C 125.4072 363.9002 86.7787 607.7905 213.384 782.0479 C 254.3178 838.3883 307.5125 880.5507 366.6499 907.535 C 386.1118 910.9399 405.7458 912.6942 425.34 912.83 C 442.3142 912.7108 459.2451 911.3953 476 908.905 C 383.7288 895.1917 296.8184 845.8462 237.6545 764.4143 C 120.7881 603.5613 156.4451 378.4319 317.298 261.5654 C 478.1509 144.699 703.2804 180.356 820.1469 341.2089 C 937.0132 502.0617 901.3562 727.1912 740.5034 844.0576 C 705.068 869.803 666.5145 888.1467 626.6849 899.38 C 592.3226 919.334 555.3474 933.8319 517.1399 942.655 C 600.5427 945.2302 685.4043 921.1715 758.137 868.3281 C 932.3942 741.7229 971.0226 497.8326 844.4174 323.5753 Z" fill="url(#gradient6)"/>
				</g>
				<path d="M 528.09 952.7949 C 563.0999 943.285 614.3969 919.4193 662.6699 888.73 C 649.5676 893.8387 636.2596 898.1227 622.8199 901.595 C 578.7583 926.5168 530.5327 942.5537 481.005 949.255 C 496.6003 951.3646 512.3256 952.5509 528.09 952.7949 ZM 879.84 477.7 C 883.833 454.5489 887.3173 412.6702 888.1849 383.005 C 883.8774 374.3013 879.2251 365.7056 874.22 357.235 C 875.3989 369.6647 876 382.2616 876 395 C 876 413.6376 874.7069 431.975 872.21 449.925 C 875.1417 459.1121 877.6854 468.3774 879.84 477.7 ZM 236.85 363.25 C 249.4279 323.3694 277.4828 270.1405 290.19 246.95 C 282.2347 253.1785 274.5806 259.656 267.23 266.365 C 241.6646 306.522 224.226 351.6523 216.32 399 C 222.4332 386.7501 229.2814 374.8099 236.85 363.25 Z" fill="url(#gradient7)"/>
			</g>
			<g>
				<path d="M 126 395 C 126 198.9364 284.9364 40 481 40 C 677.0637 40 836 198.9364 836 395 C 836 591.0637 677.0637 750 481 750 C 284.9364 750 126 591.0637 126 395 ZM 86 395 C 86 613.1554 262.8447 790 481 790 C 699.1554 790 876 613.1554 876 395 C 876 176.8447 699.1554 0 481 0 C 262.8447 0 86 176.8447 86 395 Z" fill="url(#gradient8)"/>
				<path d="M 116 390 C 116 191.1749 277.1749 30 476 30 C 674.8251 30 836 191.1749 836 390 C 836 588.8251 674.8251 750 476 750 C 277.1749 750 116 588.8251 116 390 ZM 86 390 C 86 605.3938 260.6061 780 476 780 C 691.3938 780 866 605.3938 866 390 C 866 174.6061 691.3938 0 476 0 C 260.6061 0 86 174.6061 86 390 Z" fill="url(#gradient9)"/>
			</g>
			<g>
				<g>
					<path d="M 724.02 819.49 C 762.6823 802.7446 797.5024 780.3528 827.8099 753.62 C 855.4896 712.4111 874.0114 666.2808 882.875 618.41 C 858.0295 667.1508 821.9854 710.1868 776.88 743.325 C 768.349 759.3153 758.6165 774.9078 747.661 789.9867 C 740.1738 800.292 732.2797 810.1274 724.02 819.49 ZM 293.675 742.845 C 381.6931 826.7927 506.1516 867.6702 630.77 846.995 C 654.3798 830.3252 676.2653 810.5792 695.8101 787.85 C 689.4131 790.343 682.9089 792.6649 676.2961 794.8135 C 594.7445 821.3113 510.552 816.704 436.5601 787.53 C 385.3298 781.7947 337.0632 766.2594 293.675 742.845 ZM 444.5334 81.5211 C 237.0552 148.9349 123.5142 371.7722 190.9277 579.2502 C 195.5698 593.5369 200.9498 607.3775 207.01 620.745 C 237.3002 657.4664 274.8306 687.9951 317.415 710.145 C 278.0753 671.4564 247.1995 622.994 228.97 566.8895 C 168.3831 380.4219 270.4264 180.1504 456.894 119.5634 C 643.3616 58.9764 843.6332 161.0199 904.2201 347.4874 C 918.4167 391.1802 923.6857 435.6311 921.03 478.865 C 931.1155 528.473 931.4636 579.2946 922.53 628.47 C 965.0809 540.0781 974.9713 435.7944 942.2625 335.1268 C 874.8488 127.6487 652.0114 14.1075 444.5334 81.5211 Z" fill="url(#gradient10)"/>
					<path d="M 741.45 798.3101 C 783.5752 776.4856 820.4484 747.6038 851.0599 713.6499 C 867.0194 681.6177 878.0348 647.5007 883.9149 612.53 C 859.4387 661.726 823.7761 705.3339 779.0349 739.225 C 769.999 756.6511 759.5505 773.6223 747.661 789.9867 C 745.6199 792.796 743.5505 795.5703 741.45 798.3101 ZM 312.5601 752.3899 C 404.1311 828.2083 528.5264 860.6833 650.62 831.915 C 667.5305 818.1111 683.3733 802.5972 697.8899 785.4099 C 689.7186 788.7422 681.3679 791.7983 672.8412 794.5688 C 589.478 821.655 503.3972 816.6887 427.9299 786.465 C 387.1768 780.9924 348.3906 769.3062 312.5601 752.3899 ZM 441.0784 81.2764 C 236.2268 147.8368 124.1227 367.8534 190.6831 572.7051 C 197.028 592.2327 204.7672 610.9174 213.755 628.685 C 238.9137 657.4332 268.6387 682.0882 301.7949 701.5149 C 265.2891 663.5295 236.5879 616.9036 219.2147 563.4346 C 157.7744 374.3407 261.2551 171.2484 450.3489 109.8081 C 639.4429 48.3678 842.5352 151.8485 903.9755 340.9424 C 918.7574 386.4365 923.991 432.7429 920.7849 477.69 C 928.1892 513.5514 930.5012 550.057 927.89 586.13 C 956.8743 507.0316 960.5586 418.0053 932.5071 331.6719 C 865.9468 126.8201 645.9302 14.7161 441.0784 81.2764 Z" fill="url(#gradient11)"/>
				</g>
				<path opacity="0.502" d="M 922.58 628.195 C 923.1521 627.0657 923.7194 625.9319 924.2799 624.79 L 924.3049 624.74 L 924.33 624.69 L 924.35 624.65 L 924.375 624.6 L 924.395 624.555 L 924.4149 624.51 L 924.4349 624.465 L 924.455 624.42 L 924.475 624.375 L 924.495 624.335 L 924.515 624.295 L 924.5349 624.255 L 924.5549 624.215 L 924.575 624.175 L 924.595 624.135 L 924.615 624.095 L 924.635 624.05 L 924.6599 623.995 L 924.6849 623.94 L 924.71 623.885 L 924.73 623.845 L 924.75 623.805 L 924.77 623.765 L 924.7899 623.725 L 924.8099 623.685 L 924.83 623.645 L 924.85 623.605 L 924.87 623.565 L 924.89 623.525 L 924.9099 623.48 L 924.9299 623.44 L 924.95 623.4 L 924.97 623.36 L 924.99 623.32 L 925.01 623.28 L 925.0299 623.24 L 925.0499 623.2 L 925.0699 623.16 L 925.09 623.12 L 925.11 623.08 L 925.13 623.04 L 925.15 623 L 925.1699 622.96 L 925.1899 622.92 L 925.21 622.88 L 925.23 622.84 L 925.25 622.8 L 925.27 622.76 L 925.2899 622.72 L 925.3099 622.68 L 925.33 622.64 L 925.35 622.6 L 925.37 622.56 L 925.39 622.52 L 925.4099 622.48 L 925.4299 622.44 L 925.45 622.4 L 925.47 622.36 L 925.49 622.32 L 925.51 622.28 L 925.5299 622.24 L 925.5499 622.2 L 925.5699 622.16 L 925.59 622.12 L 925.61 622.08 L 925.63 622.04 L 925.65 622 L 925.6699 621.96 L 925.6899 621.92 L 925.71 621.88 L 925.725 621.845 L 925.745 621.805 L 925.765 621.765 L 925.7849 621.73 L 925.7999 621.695 L 925.8149 621.66 L 925.83 621.625 L 925.845 621.59 L 925.86 621.555 L 925.875 621.52 L 925.89 621.485 L 925.9049 621.45 L 925.9199 621.415 L 925.9349 621.38 L 925.955 621.34 L 925.975 621.3 L 925.995 621.26 L 926.015 621.22 L 926.0349 621.18 L 926.0499 621.145 L 926.0699 621.105 L 926.09 621.065 L 926.105 621.03 L 926.12 620.995 L 926.135 620.96 L 926.15 620.925 L 926.1649 620.89 L 926.1799 620.855 L 926.1949 620.82 L 926.21 620.785 L 926.225 620.75 L 926.24 620.715 L 926.255 620.68 L 926.275 620.635 L 926.2949 620.59 L 926.3149 620.545 L 926.335 620.5 L 926.355 620.455 L 926.37 620.42 C 929.0779 614.4518 931.6394 608.4148 934.0499 602.315 C 941.0513 551.7566 926.759 489.7287 921.3149 473.555 C 921.2329 475.3262 921.1385 477.0978 921.03 478.865 C 931.0966 528.3802 931.4622 579.1055 922.58 628.195 ZM 744.37 809.98 C 760.8837 788.1826 784.4957 750.5941 796.38 725.21 C 790.7612 730.0459 784.9791 734.7223 779.0349 739.225 C 778.3252 740.5935 777.6071 741.962 776.88 743.325 C 768.349 759.3153 758.6165 774.9078 747.661 789.9867 C 745.6205 792.7952 743.55 795.5714 741.45 798.3101 C 735.8441 805.6204 730.0287 812.679 724.02 819.49 C 730.927 816.4984 737.712 813.3245 744.37 809.98 ZM 319.33 765.28 C 356.1726 779.7007 410.1401 787.942 449.6951 792.4149 C 445.2836 790.8729 440.9038 789.2427 436.5601 787.53 C 385.3298 781.7947 337.0632 766.2594 293.675 742.845 C 301.9167 750.7056 310.479 758.1898 319.33 765.28 Z" fill="#2ec820"/>
			</g>
		</g>
	</g>
</svg>